<?xml version="1.0" standalone="no"?>
<!DOCTYPE svg PUBLIC "-//W3C//DTD SVG 20010904//EN"
 "http://www.w3.org/TR/2001/REC-SVG-20010904/DTD/svg10.dtd">
<svg version="1.0" xmlns="http://www.w3.org/2000/svg"
 width="557" height="253" viewBox="0 0 557 253"
 preserveAspectRatio="xMidYMid meet">

<g transform="translate(0,253) scale(0.1,-0.1)"
fill="#000000" stroke="none">
<path d="M570 2341 c-110 -34 -198 -127 -287 -306 -85 -168 -121 -350 -94
-474 38 -179 185 -309 447 -395 76 -25 82 -29 86 -57 4 -28 1 -32 -34 -46
-100 -40 -115 -169 -26 -223 91 -55 194 11 186 120 l-3 50 58 28 59 29 175
-43 c354 -88 883 -182 1143 -203 63 -5 216 -10 340 -10 124 -1 304 -3 400 -6
96 -3 336 -8 532 -11 l358 -6 31 -102 c16 -55 32 -108 35 -117 2 -9 -15 -35
-40 -62 -59 -61 -81 -130 -66 -204 44 -209 323 -249 422 -60 73 139 -34 327
-186 327 -28 0 -35 4 -40 26 -4 15 -6 28 -4 29 2 2 73 38 158 80 l155 76 232
-2 c220 -1 233 0 270 20 61 35 84 78 93 173 16 164 23 505 11 540 -13 40 -64
92 -105 108 -20 7 -235 10 -698 10 l-670 -1 -61 58 c-158 150 -296 212 -495
221 -132 6 -218 -7 -339 -49 -124 -44 -204 -90 -323 -184 l-65 -52 -200 -7
c-110 -4 -220 -9 -245 -11 -25 -2 -119 -7 -210 -10 -91 -3 -211 -8 -267 -11
-82 -5 -104 -3 -107 7 -134 395 -303 673 -449 739 -43 20 -129 25 -177 11z
m145 -65 c41 -17 137 -105 129 -117 -3 -5 -21 -9 -40 -9 -31 0 -34 -3 -34 -29
l0 -29 63 5 62 5 48 -83 47 -84 -82 -10 c-81 -10 -83 -10 -80 -36 l3 -26 95 1
96 1 34 -80 c18 -44 33 -86 34 -92 0 -9 -18 -13 -58 -13 -33 0 -94 -3 -136 -7
-76 -6 -77 -6 -74 -32 3 -29 -3 -29 189 -18 l106 6 12 -40 c7 -23 11 -43 9
-45 -4 -4 -479 -31 -713 -41 l-151 -6 -12 40 c-7 22 -12 43 -12 45 0 3 44 7
98 8 53 1 153 5 222 9 l125 6 -3 50 c-2 28 -13 182 -25 343 -25 328 -28 310
48 278z m2321 -437 c32 -6 63 -14 68 -19 4 -5 -3 -23 -17 -42 -36 -48 -73
-125 -92 -193 -10 -33 -19 -61 -20 -63 -2 -2 -76 9 -165 24 l-162 28 7 35 c16
87 104 225 148 234 45 9 175 7 233 -4z m-367 -60 c-12 -17 -35 -68 -50 -113
l-29 -81 -42 1 c-108 2 -234 8 -241 12 -13 7 110 96 194 141 74 40 180 82 188
75 2 -1 -7 -17 -20 -35z m714 -121 l72 -68 -23 -19 c-49 -42 -130 -64 -257
-68 -66 -2 -126 0 -134 5 -26 18 50 202 111 269 l21 23 69 -37 c39 -20 101
-66 141 -105z m-2233 -308 c23 -13 31 -45 15 -67 -11 -15 -33 -17 -206 -16
l-194 1 180 -24 c235 -30 290 -32 315 -9 11 10 20 29 20 42 0 12 3 23 8 23 4
0 86 -11 182 -25 254 -35 492 -55 770 -62 278 -7 472 3 905 47 567 57 723 67
1218 77 l347 6 0 -160 c0 -88 3 -201 7 -252 l6 -91 -424 6 c-233 4 -425 8
-427 9 -1 1 5 15 13 32 22 44 6 119 -33 154 -27 24 -39 27 -143 33 -120 8
-548 -7 -734 -25 -204 -19 -392 -66 -543 -135 -87 -40 -101 -40 -295 -14 -618
83 -1344 254 -1617 380 l-45 20 35 -1 c19 -1 80 10 135 25 56 14 139 30 185
35 96 11 293 5 320 -9z m3080 -570 c3 0 -37 -21 -89 -45 -51 -25 -97 -43 -101
-40 -4 2 -10 17 -13 32 -3 16 -9 36 -13 47 -7 18 -2 18 102 13 60 -4 111 -6
114 -7z m-36 -456 c53 -20 -48 -137 -111 -128 -7 1 -20 2 -30 3 -22 1 -93 78
-93 101 0 10 6 21 13 23 18 8 202 8 221 1z"/>
<path d="M5157 1878 c-28 -114 -51 -487 -32 -518 4 -6 -13 -10 -43 -10 l-49 0
-7 -77 c-8 -105 -7 -205 3 -221 4 -8 21 -13 37 -12 50 4 55 1 49 -22 -33 -143
-14 -558 25 -558 14 0 28 62 46 195 15 114 14 216 -3 343 l-6 42 62 0 c56 0
66 3 92 29 28 28 29 33 29 126 0 89 -2 98 -25 120 -13 14 -37 26 -52 27 -15 0
-44 2 -63 3 l-35 1 5 44 c8 71 5 431 -3 473 -9 42 -22 48 -30 15z"/>
</g>
</svg>
